<svg width="3660" height="600" viewBox="0 0 3660 600" fill="none" xmlns="http://www.w3.org/2000/svg">
<path fill-rule="evenodd" clip-rule="evenodd" d="M3520.95 201.758C3547 201.758 3570.52 208.566 3591.52 222.183C3612.51 235.411 3629.04 254.67 3641.09 279.958C3651.92 301.974 3658.04 327.722 3659.44 357.121C3659.79 364.49 3653.77 370.475 3646.4 370.475H3439.54C3440.57 384.955 3444.41 397.773 3450.96 408.931C3458.74 421.77 3469.04 431.691 3481.88 438.694C3494.71 445.697 3508.9 449.199 3524.45 449.199C3542.33 449.199 3557.11 445.308 3568.77 437.527C3577.95 431.102 3585.56 423.232 3591.6 413.918C3594.41 409.596 3599.85 407.571 3604.6 409.585L3642.69 425.754C3648.74 428.323 3651.34 435.538 3647.83 441.097C3640.73 452.333 3632.27 462.426 3622.43 471.375C3609.99 483.047 3595.02 491.995 3577.52 498.22C3560.41 504.445 3540.78 507.558 3518.62 507.558C3490.23 507.558 3464.96 501.138 3442.8 488.299C3421.03 475.071 3403.73 456.98 3390.89 434.026C3378.45 411.071 3372.23 384.615 3372.23 354.658C3372.23 324.7 3378.65 298.244 3391.48 275.29C3404.31 252.335 3421.8 234.439 3443.97 221.6C3466.52 208.372 3492.18 201.758 3520.95 201.758ZM3519.2 257.782C3507.54 257.782 3495.87 260.506 3484.21 265.953C3472.54 271.01 3462.82 278.791 3455.05 289.296C3448.65 297.624 3444.89 307.929 3443.76 320.211H3589.45C3588.44 307.929 3585.03 297.624 3579.27 289.296C3572.27 278.792 3563.33 271.01 3552.44 265.953C3541.95 260.506 3530.87 257.782 3519.2 257.782Z" fill="#242727"/>
<path d="M3349.04 205.3C3354.85 204.868 3359.58 209.635 3359.58 215.459V258.051C3359.58 263.325 3355.42 267.633 3350.16 268.058C3328.96 269.77 3313.41 274.148 3297.71 281.723C3279.79 290.377 3265.82 303.407 3256.24 314.451V489.632C3256.24 495.455 3251.52 500.177 3245.69 500.177H3201.76C3195.93 500.177 3191.21 495.455 3191.21 489.632V219.684C3191.21 213.861 3195.93 209.14 3201.76 209.14H3245.69C3251.52 209.14 3256.24 213.861 3256.24 219.684V255.807C3269.01 239.436 3280.75 230.189 3298.61 220.16C3314.55 211.208 3331.63 206.593 3349.04 205.3Z" fill="#242727"/>
<path d="M2997.39 507.558C2968.21 507.558 2942.15 501.138 2919.2 488.299C2896.63 475.071 2878.93 456.98 2866.1 434.026C2853.26 411.071 2846.84 384.615 2846.84 354.658C2846.84 324.7 2853.06 298.244 2865.51 275.29C2878.35 252.335 2896.05 234.439 2918.61 221.6C2941.18 208.372 2967.05 201.758 2996.22 201.758C3025.4 201.758 3051.27 208.372 3073.83 221.6C3096.4 234.439 3113.9 252.335 3126.35 275.29C3139.19 298.244 3145.61 324.7 3145.61 354.658C3145.61 384.615 3139.38 411.071 3126.94 434.026C3114.49 456.98 3096.98 475.071 3074.42 488.299C3051.85 501.138 3026.18 507.558 2997.39 507.558ZM2997.39 447.448C3013.34 447.448 3027.54 443.558 3039.99 435.776C3052.44 427.606 3062.16 416.713 3069.17 403.095C3076.17 389.089 3079.67 372.943 3079.67 354.658C3079.67 336.372 3075.97 320.421 3068.58 306.804C3061.58 292.798 3051.85 281.904 3039.41 274.123C3026.96 265.953 3012.56 261.867 2996.22 261.867C2979.88 261.867 2965.49 265.758 2953.04 273.539C2940.59 281.32 2930.87 292.214 2923.87 306.22C2916.86 320.226 2913.36 336.372 2913.36 354.658C2913.36 372.943 2916.86 389.089 2923.87 403.095C2931.26 416.713 2941.18 427.606 2953.63 435.776C2966.46 443.558 2981.05 447.448 2997.39 447.448Z" fill="#242727"/>
<path d="M2727.99 137.083C2733.81 137.083 2738.53 141.804 2738.53 147.628V229.269C2758.17 214.89 2781.23 207.172 2803.22 205.307C2809.02 204.815 2813.75 209.581 2813.75 215.405V257.547C2813.75 262.906 2809.44 267.265 2804.09 267.589C2774.53 269.377 2752.75 276.636 2738.53 289.066V406.012C2738.53 419.625 2741.55 429.916 2747.77 436.917C2754.39 443.918 2763.92 447.419 2776.36 447.419C2780.25 447.419 2784.53 446.641 2789.2 445.085C2791.03 444.475 2792.96 443.656 2794.99 442.627C2800.49 439.836 2807.51 441.482 2810.17 447.046L2824.6 477.232C2826.99 482.214 2825.42 488.236 2820.69 491.083C2813.25 495.561 2805.79 499.105 2798.36 501.678C2788.25 505.567 2775.33 507.558 2765.22 507.558C2734.49 507.558 2713.76 499.928 2697.43 484.759C2681.48 469.2 2673.51 447.024 2673.51 418.241V147.628C2673.51 141.804 2678.23 137.083 2684.05 137.083H2727.99Z" fill="#242727"/>
<path d="M2533.57 137.083C2539.39 137.083 2544.11 141.804 2544.11 147.628V229.269C2563.75 214.89 2586.81 207.172 2608.8 205.307C2614.6 204.815 2619.33 209.581 2619.33 215.405V257.547C2619.33 262.906 2615.02 267.265 2609.67 267.589C2580.11 269.377 2558.33 276.636 2544.11 289.066V406.012C2544.11 419.625 2547.13 429.916 2553.35 436.917C2559.97 443.918 2569.49 447.419 2581.94 447.419C2585.83 447.419 2590.11 446.641 2594.78 445.085C2596.61 444.475 2598.54 443.656 2600.57 442.627C2606.07 439.836 2613.08 441.482 2615.75 447.046L2630.18 477.232C2632.56 482.214 2631 488.236 2626.27 491.083C2618.83 495.561 2611.37 499.105 2603.94 501.678C2593.83 505.567 2580.91 507.558 2570.8 507.558C2540.07 507.558 2519.34 499.928 2503.01 484.759C2487.06 469.2 2479.09 447.024 2479.09 418.241V147.628C2479.09 141.804 2483.81 137.083 2489.63 137.083H2533.57Z" fill="#242727"/>
<path d="M2285.17 507.558C2256 507.558 2229.93 501.138 2206.98 488.299C2184.42 475.071 2166.72 456.98 2153.88 434.026C2141.04 411.071 2134.62 384.615 2134.62 354.658C2134.62 324.7 2140.85 298.244 2153.29 275.29C2166.13 252.335 2183.83 234.439 2206.4 221.6C2228.96 208.372 2254.83 201.758 2284.01 201.758C2313.18 201.758 2339.05 208.372 2361.62 221.6C2384.18 234.439 2401.69 252.335 2414.13 275.29C2426.97 298.244 2433.39 324.7 2433.39 354.658C2433.39 384.615 2427.17 411.071 2414.72 434.026C2402.27 456.98 2384.76 475.071 2362.2 488.299C2339.64 501.138 2313.96 507.558 2285.17 507.558ZM2285.17 447.448C2301.12 447.448 2315.32 443.558 2327.77 435.776C2340.22 427.606 2349.95 416.713 2356.95 403.095C2363.95 389.089 2367.45 372.943 2367.45 354.658C2367.45 336.372 2363.76 320.421 2356.36 306.804C2349.36 292.798 2339.64 281.904 2327.19 274.123C2314.74 265.953 2300.35 261.867 2284.01 261.867C2267.67 261.867 2253.27 265.758 2240.83 273.539C2228.38 281.32 2218.65 292.214 2211.65 306.22C2204.65 320.226 2201.14 336.372 2201.14 354.658C2201.14 372.943 2204.65 389.089 2211.65 403.095C2219.04 416.713 2228.96 427.606 2241.41 435.776C2254.25 443.558 2268.83 447.448 2285.17 447.448Z" fill="#242727"/>
<path fill-rule="evenodd" clip-rule="evenodd" d="M1897.58 99.8247C1936.85 99.8247 1971.55 108.404 2001.67 125.562C2032.18 142.338 2056.01 165.788 2073.16 195.909C2090.7 226.031 2099.47 260.728 2099.47 300C2099.47 338.892 2090.7 373.398 2073.16 403.52C2056.01 433.642 2032.18 457.281 2001.67 474.439C1971.55 491.597 1936.85 500.176 1897.58 500.176H1778.91C1771.53 500.176 1765.55 494.196 1765.55 486.819V113.181C1765.55 105.805 1771.53 99.8247 1778.91 99.8247H1897.58ZM1833.04 437.259H1897.29C1915.82 437.259 1933.22 433.856 1949.47 427.05C1965.73 419.865 1979.91 410.034 1992.01 397.556C2004.11 385.078 2013.56 370.52 2020.37 353.883C2027.18 337.246 2030.58 319.285 2030.58 300C2030.58 280.716 2027.18 262.755 2020.37 246.118C2013.56 229.481 2004.11 214.923 1992.01 202.445C1979.91 189.967 1965.73 180.325 1949.47 173.519C1933.22 166.334 1915.82 162.742 1897.29 162.742H1833.04V437.259Z" fill="#242727"/>
<path d="M1571.64 507.558C1542.46 507.558 1516.4 501.138 1493.45 488.299C1470.88 475.071 1453.18 456.98 1440.35 434.026C1427.51 411.071 1421.09 384.615 1421.09 354.658C1421.09 324.7 1427.31 298.244 1439.76 275.29C1452.6 252.335 1470.3 234.439 1492.86 221.6C1515.43 208.372 1541.3 201.758 1570.47 201.758C1599.65 201.758 1625.52 208.372 1648.08 221.6C1670.65 234.439 1688.15 252.335 1700.6 275.29C1713.44 298.244 1719.86 324.7 1719.86 354.658C1719.86 384.615 1713.63 411.071 1701.19 434.026C1688.74 456.98 1671.23 475.071 1648.67 488.299C1626.1 501.138 1600.43 507.558 1571.64 507.558ZM1571.64 447.448C1587.59 447.448 1601.79 443.558 1614.24 435.776C1626.69 427.606 1636.41 416.713 1643.42 403.095C1650.42 389.089 1653.92 372.943 1653.92 354.658C1653.92 336.372 1650.22 320.421 1642.83 306.804C1635.83 292.798 1626.1 281.904 1613.66 274.123C1601.21 265.953 1586.81 261.867 1570.47 261.867C1554.14 261.867 1539.74 265.758 1527.29 273.539C1514.84 281.32 1505.12 292.214 1498.12 306.22C1491.11 320.226 1487.61 336.372 1487.61 354.658C1487.61 372.943 1491.11 389.089 1498.12 403.095C1505.51 416.713 1515.43 427.606 1527.88 435.776C1540.71 443.558 1555.3 447.448 1571.64 447.448Z" fill="#242727"/>
<path d="M1362.74 209.14C1368.57 209.14 1373.29 213.861 1373.29 219.684V489.632C1373.29 495.455 1368.57 500.177 1362.74 500.177H1318.8C1312.98 500.177 1308.26 495.455 1308.26 489.632V219.684C1308.26 213.861 1312.98 209.14 1318.8 209.14H1362.74Z" fill="#242727"/>
<path d="M1340.77 92.4434C1351.17 92.4434 1360.03 96.131 1367.35 103.506C1375.06 110.881 1378.91 119.809 1378.91 130.289C1378.91 140.77 1375.06 149.891 1367.35 157.655C1360.03 165.03 1351.17 168.718 1340.77 168.718C1330.37 168.718 1321.32 165.03 1313.61 157.655C1306.3 149.891 1302.64 140.77 1302.64 130.289C1302.64 119.809 1306.3 110.881 1313.61 103.506C1321.32 96.131 1330.37 92.4434 1340.77 92.4434Z" fill="#242727"/>
<path d="M855.536 500.176C848.936 500.176 843.585 494.826 843.585 488.225V111.776C843.585 105.175 848.936 99.8247 855.536 99.8247H905.304C911.776 99.8247 917.835 103.007 921.509 108.335L1043.23 284.886L1164.96 108.335C1168.63 103.007 1174.69 99.8247 1181.16 99.8247H1230.93C1237.53 99.8247 1242.88 105.175 1242.88 111.776V488.225C1242.88 494.826 1237.53 500.176 1230.93 500.176H1187.35C1180.75 500.176 1175.4 494.826 1175.4 488.225V209.139L1054.19 383.204C1048.88 390.836 1037.59 390.836 1032.27 383.204L911.072 209.139V488.225C911.072 494.826 905.721 500.176 899.121 500.176H855.536Z" fill="#242727"/>
<path fill-rule="evenodd" clip-rule="evenodd" d="M27.2817 177.71C30.7431 167.141 41.7094 160.97 52.5424 163.494L215.065 201.367C226.527 204.037 237.693 195.924 238.689 184.2L252.678 19.6343C253.622 8.53153 262.911 0 274.056 0H359.341C370.487 0 379.777 8.53319 380.72 19.6372L393.539 170.693C394.108 177.391 390.137 183.653 383.851 186.036C320.359 210.113 280 227.518 232.658 258.695C202.096 278.822 171.415 301.815 144.37 327.535C139.323 332.335 131.93 333.82 125.503 331.135L13.1871 284.21C2.86266 279.897 -2.4125 268.375 1.06955 257.743L27.2817 177.71ZM469.17 595.968C460.173 602.432 447.734 600.984 440.463 592.628L359.71 499.827C355.055 494.478 354.113 486.79 357.811 480.739C378.544 446.813 413.525 411.405 447.706 386.398C453.607 382.08 461.858 383.904 465.677 390.14L543.875 517.831C549.742 527.412 547.222 539.896 538.096 546.452L469.17 595.968ZM181.132 596.173C191.641 603.447 206.121 599.959 212.557 588.918C301.927 435.6 441.975 321.731 617.027 282.018C628.396 279.439 635.352 267.719 631.722 256.644L605.744 177.391C602.576 167.725 593.036 161.579 582.957 162.969C366.773 192.789 182.314 318.846 77.6436 498.962C71.6013 509.36 74.7979 522.569 84.6869 529.414L181.132 596.173Z" fill="#00A085"/>
</svg>
